<svg width="159" height="47" viewBox="0 0 159 47" fill="none" xmlns="http://www.w3.org/2000/svg">
<g id="Google Play">
<g id="Group">
<path id="BG" d="M153.132 46.6514H6.43055C3.20459 46.6514 0.5625 44.0258 0.5625 40.82V5.83171C0.5625 2.62591 3.20459 0.000328064 6.43055 0.000328064H153.132C156.358 0.000328064 159 2.62591 159 5.83171V40.82C159 44.0258 156.358 46.6514 153.132 46.6514Z" fill="#020204"/>
<path id="Border" d="M153.132 0.934805C155.849 0.934805 158.06 3.13178 158.06 5.83171V40.82C158.06 43.5199 155.849 45.7169 153.132 45.7169H6.43055C3.71365 45.7169 1.50286 43.5199 1.50286 40.82V5.83171C1.50286 3.13178 3.71365 0.934805 6.43055 0.934805H153.132ZM153.132 0.000328064H6.43055C3.20459 0.000328064 0.5625 2.62591 0.5625 5.83171V40.82C0.5625 44.0258 3.20459 46.6514 6.43055 46.6514H153.132C156.358 46.6514 159 44.0258 159 40.82V5.83171C159 2.62591 156.358 0.000328064 153.132 0.000328064Z" fill="white"/>
<g id="Icon">
<path id="Vector" d="M11.9288 8.79327C11.584 9.1519 11.3845 9.71025 11.3845 10.4333V36.2255C11.3845 36.9486 11.584 37.507 11.9288 37.8656L12.0139 37.9443L26.5578 23.4971V23.156L12.0139 8.70871L11.9288 8.79327Z" fill="white"/>
<path id="Vector_2" d="M33.1607 28.3145L28.3181 23.4963V23.1551L33.1666 18.337L33.2752 18.3996L39.017 21.6463C40.6557 22.5676 40.6557 24.0838 39.017 25.011L33.2752 28.2518L33.1607 28.3145Z" fill="white"/>
<path id="Vector_3" d="M32.3964 29.1494L27.4394 24.2233L12.8103 38.7624C13.3546 39.3309 14.2421 39.3995 15.2514 38.8309L32.3964 29.1494Z" fill="white"/>
<path id="Vector_4" d="M32.3964 17.5036L15.2514 7.82209C14.2421 7.25936 13.3546 7.32787 12.8103 7.89643L27.4394 22.4297L32.3964 17.5036Z" fill="white"/>
</g>
<g id="GET IT ON">
<path id="G" d="M56.2117 11.9481C56.2117 12.922 55.9183 13.7019 55.3403 14.2836C54.6757 14.9732 53.8102 15.3201 52.7495 15.3201C51.7358 15.3201 50.8703 14.9673 50.1603 14.2719C49.4488 13.5663 49.0938 12.7004 49.0938 11.6638C49.0938 10.6273 49.4488 9.76136 50.1603 9.06159C50.8703 8.36037 51.7358 8.00757 52.7495 8.00757C53.2542 8.00757 53.7354 8.11108 54.1946 8.30351C54.6523 8.4974 55.0249 8.75982 55.2948 9.08346L54.6816 9.69867C54.2107 9.14615 53.5696 8.87353 52.7495 8.87353C52.0102 8.87353 51.3691 9.13011 50.8248 9.64764C50.2864 10.1666 50.0165 10.8387 50.0165 11.6638C50.0165 12.489 50.2864 13.1669 50.8248 13.6859C51.3691 14.1976 52.0102 14.46 52.7495 14.46C53.5344 14.46 54.1946 14.1976 54.7153 13.68C55.0586 13.3374 55.2537 12.8651 55.3051 12.2616H52.7495V11.4189H56.1589C56.2 11.6012 56.2117 11.7776 56.2117 11.9481Z" fill="white" stroke="white" stroke-width="0.16" stroke-miterlimit="10"/>
<path id="E" d="M61.6208 9.02664H58.4183V11.2426H61.3054V12.0852H58.4183V14.3011H61.6208V15.1598H57.5117V8.16797H61.6208V9.02664Z" fill="white" stroke="white" stroke-width="0.16" stroke-miterlimit="10"/>
<path id="T" d="M65.4374 15.1598H64.5307V9.02664H62.5664V8.16797H67.4031V9.02664H65.4374V15.1598Z" fill="white" stroke="white" stroke-width="0.16" stroke-miterlimit="10"/>
<path id="I" d="M70.9043 15.1598V8.16797H71.8094V15.1598H70.9043Z" fill="white" stroke="white" stroke-width="0.16" stroke-miterlimit="10"/>
<path id="T_2" d="M75.8221 15.1598H74.9228V9.02664H72.9512V8.16797H77.7938V9.02664H75.8221V15.1598Z" fill="white" stroke="white" stroke-width="0.16" stroke-miterlimit="10"/>
<path id="O" d="M86.9491 14.2605C86.2552 14.9676 85.3955 15.3204 84.3701 15.3204C83.3388 15.3204 82.4791 14.9676 81.7852 14.2605C81.0928 13.5549 80.748 12.689 80.748 11.6641C80.748 10.6392 81.0928 9.77326 81.7852 9.06767C82.4791 8.36061 83.3388 8.00781 84.3701 8.00781C85.3897 8.00781 86.2494 8.36061 86.9433 9.0735C87.6416 9.78493 87.9863 10.6451 87.9863 11.6641C87.9863 12.689 87.6415 13.5549 86.9491 14.2605ZM82.4557 13.6745C82.9779 14.1978 83.6131 14.4602 84.3701 14.4602C85.1212 14.4602 85.7623 14.1978 86.2787 13.6745C86.7995 13.1511 87.0635 12.479 87.0635 11.6641C87.0635 10.8492 86.7995 10.1771 86.2787 9.65372C85.7623 9.13035 85.1212 8.86794 84.3701 8.86794C83.6131 8.86794 82.9779 9.13035 82.4557 9.65372C81.9349 10.1771 81.6708 10.8492 81.6708 11.6641C81.6708 12.479 81.9349 13.1511 82.4557 13.6745Z" fill="white" stroke="white" stroke-width="0.16" stroke-miterlimit="10"/>
<path id="N" d="M89.2578 15.1598V8.16797H90.3581L93.7791 13.6057H93.8188L93.7791 12.2616V8.16797H94.6843V15.1598H93.7395L90.1571 9.45379H90.1175L90.1571 10.8038V15.1598H89.2578Z" fill="white" stroke="white" stroke-width="0.16" stroke-miterlimit="10"/>
</g>
<g id="Google Play_2">
<path id="Google Play_3" d="M80.5275 25.3698C77.771 25.3698 75.5191 27.4545 75.5191 30.3308C75.5191 33.1838 77.771 35.2904 80.5275 35.2904C83.2899 35.2904 85.5418 33.1838 85.5418 30.3308C85.5418 27.4545 83.2899 25.3698 80.5275 25.3698ZM80.5275 33.3369C79.015 33.3369 77.7138 32.0963 77.7138 30.3308C77.7138 28.5421 79.015 27.3233 80.5275 27.3233C82.04 27.3233 83.3471 28.5421 83.3471 30.3308C83.3471 32.0963 82.04 33.3369 80.5275 33.3369ZM69.5997 25.3698C66.8373 25.3698 64.5913 27.4545 64.5913 30.3308C64.5913 33.1838 66.8373 35.2904 69.5997 35.2904C72.3606 35.2904 74.6081 33.1838 74.6081 30.3308C74.6081 27.4545 72.3606 25.3698 69.5997 25.3698ZM69.5997 33.3369C68.0858 33.3369 66.7801 32.0963 66.7801 30.3308C66.7801 28.5421 68.0858 27.3233 69.5997 27.3233C71.1122 27.3233 72.4134 28.5421 72.4134 30.3308C72.4134 32.0963 71.1122 33.3369 69.5997 33.3369ZM56.5961 26.8903V28.9984H61.6617C61.5135 30.1763 61.1174 31.0423 60.5101 31.6458C59.7707 32.3747 58.6191 33.1838 56.5961 33.1838C53.4787 33.1838 51.0376 30.6836 51.0376 27.5857C51.0376 24.4878 53.4787 21.9876 56.5961 21.9876C58.2817 21.9876 59.5081 22.6422 60.4133 23.4906L61.9082 22.0051C60.6421 20.8038 58.958 19.881 56.5961 19.881C52.3212 19.881 48.7285 23.3376 48.7285 27.5857C48.7285 31.8339 52.3212 35.2904 56.5961 35.2904C58.9067 35.2904 60.6421 34.5382 62.0065 33.127C63.4045 31.7377 63.8402 29.7841 63.8402 28.2068C63.8402 27.7169 63.7991 27.2664 63.7258 26.8903H56.5961ZM109.769 28.5246C109.357 27.4151 108.085 25.3698 105.495 25.3698C102.927 25.3698 100.79 27.3802 100.79 30.3308C100.79 33.1095 102.905 35.2904 105.741 35.2904C108.034 35.2904 109.357 33.9011 109.902 33.092L108.2 31.9651C107.632 32.7902 106.859 33.3369 105.741 33.3369C104.631 33.3369 103.834 32.831 103.323 31.8339L110 29.0888L109.769 28.5246ZM102.963 30.1763C102.905 28.2636 104.457 27.2839 105.569 27.2839C106.441 27.2839 107.18 27.7169 107.427 28.3365L102.963 30.1763ZM97.5361 34.9887H99.7307V20.4102H97.5361V34.9887ZM93.9419 26.4748H93.8685C93.3756 25.8946 92.4353 25.3698 91.244 25.3698C88.7442 25.3698 86.4586 27.5507 86.4586 30.3469C86.4586 33.127 88.7442 35.2904 91.244 35.2904C92.4353 35.2904 93.3756 34.7612 93.8685 34.1635H93.9419V34.8749C93.9419 36.7716 92.9223 37.7906 91.2778 37.7906C89.9369 37.7906 89.1051 36.8285 88.7619 36.0193L86.8533 36.811C87.4034 38.1259 88.8601 39.7441 91.2778 39.7441C93.8509 39.7441 96.0221 38.2396 96.0221 34.579V25.6716H93.9419V26.4748ZM91.4318 33.3369C89.9193 33.3369 88.6533 32.0788 88.6533 30.3469C88.6533 28.5989 89.9193 27.3233 91.4318 27.3233C92.9223 27.3233 94.0974 28.5989 94.0974 30.3469C94.0974 32.0788 92.9223 33.3369 91.4318 33.3369ZM120.044 20.4102H114.795V34.9887H116.984V29.4649H120.044C122.475 29.4649 124.859 27.7169 124.859 24.9368C124.859 22.1582 122.469 20.4102 120.044 20.4102ZM120.102 27.437H116.984V22.4381H120.102C121.736 22.4381 122.669 23.7866 122.669 24.9368C122.669 26.0652 121.736 27.437 120.102 27.437ZM133.632 25.3421C132.05 25.3421 130.406 26.036 129.73 27.5741L131.672 28.3832C132.09 27.5741 132.859 27.3116 133.672 27.3116C134.807 27.3116 135.959 27.9895 135.976 29.1864V29.3395C135.58 29.1121 134.732 28.7753 133.689 28.7753C131.597 28.7753 129.466 29.9197 129.466 32.0555C129.466 34.009 131.179 35.2671 133.105 35.2671C134.578 35.2671 135.391 34.6067 135.901 33.8384H135.976V34.9653H138.09V29.373C138.09 26.7883 136.148 25.3421 133.632 25.3421ZM133.368 33.3311C132.652 33.3311 131.654 32.9783 131.654 32.0963C131.654 30.9679 132.898 30.5349 133.975 30.5349C134.939 30.5349 135.391 30.7463 135.976 31.0248C135.805 32.3747 134.635 33.3311 133.368 33.3311ZM145.792 25.6614L143.276 31.9811H143.201L140.6 25.6614H138.24L142.148 34.493L139.918 39.4074H142.205L148.227 25.6614H145.792ZM126.062 34.9887H128.257V20.4102H126.062V34.9887Z" fill="white"/>
</g>
</g>
</g>
</svg>
