<svg width="160" height="48" viewBox="0 0 160 48" fill="none" xmlns="http://www.w3.org/2000/svg">
<g id="App Store">
<g id="Group">
<path id="BG" d="M158.432 42.0493C158.432 44.5823 156.404 46.6341 153.895 46.6341H5.42747C2.92005 46.6341 0.884766 44.5823 0.884766 42.0493V5.48724C0.884766 2.95544 2.92005 0.896484 5.42747 0.896484H153.894C156.404 0.896484 158.431 2.95544 158.431 5.48724L158.432 42.0493Z" fill="#020204"/>
<path id="Border" d="M153.417 0.952114C156.149 0.952114 158.372 3.19054 158.372 5.94141V41.5898C158.372 44.3407 156.149 46.5791 153.417 46.5791H5.90066C3.16865 46.5791 0.94558 44.3407 0.94558 41.5898V5.94141C0.94558 3.19054 3.16865 0.952114 5.90066 0.952114H153.417ZM153.417 3.8147e-06H5.90066C2.65677 3.8147e-06 0 2.67512 0 5.94141V41.5898C0 44.8561 2.65677 47.5312 5.90066 47.5312H153.417C156.661 47.5312 159.318 44.8561 159.318 41.5898V5.94141C159.318 2.67512 156.661 3.8147e-06 153.417 3.8147e-06Z" fill="white"/>
<g id="Icon">
<g id="Vector">
<path d="M35.5546 23.5091C35.5203 19.6793 38.6689 17.816 38.8129 17.7293C37.0297 15.1115 34.2659 14.7538 33.2946 14.7253C30.9733 14.4794 28.7216 16.1239 27.5391 16.1239C26.333 16.1239 24.5121 14.7491 22.5495 14.7895C20.024 14.8287 17.6614 16.301 16.3656 18.5872C13.6915 23.2489 15.6859 30.0993 18.2479 33.8674C19.5296 35.7128 21.0272 37.7732 22.9874 37.7007C24.9051 37.6211 25.6214 36.4697 27.9356 36.4697C30.2286 36.4697 30.9013 37.7007 32.9005 37.6544C34.9586 37.6211 36.2544 35.8007 37.4912 33.9387C38.9722 31.8235 39.567 29.7405 39.5906 29.6335C39.5422 29.6169 35.5935 28.0994 35.5546 23.5091Z" fill="white"/>
<path d="M31.7781 12.2466C32.8096 10.9478 33.5153 9.18081 33.3194 7.3877C31.8265 7.45424 29.9596 8.42744 28.8845 9.69771C27.9333 10.8171 27.0836 12.6518 27.3031 14.3772C28.9801 14.5031 30.7019 13.5252 31.7781 12.2466Z" fill="white"/>
</g>
</g>
<g id="Download on the">
<path id="D" d="M57.885 11.8933C57.885 13.2919 57.4684 14.3447 56.6364 15.0518C55.8658 15.7041 54.7706 16.0309 53.3521 16.0309C52.6488 16.0309 52.0469 16 51.543 15.9382V8.29637C52.2003 8.18943 52.9084 8.13477 53.6731 8.13477C55.0244 8.13477 56.0428 8.43065 56.7296 9.02241C57.4991 9.69141 57.885 10.648 57.885 11.8933ZM56.581 11.9278C56.581 11.0211 56.3426 10.326 55.8658 9.84114C55.389 9.35751 54.6927 9.1151 53.7758 9.1151C53.3863 9.1151 53.0547 9.14124 52.7797 9.1959V15.0054C52.932 15.0292 53.2105 15.0399 53.6153 15.0399C54.5617 15.0399 55.2923 14.7749 55.8068 14.2449C56.3213 13.7149 56.581 12.9426 56.581 11.9278Z" fill="white"/>
<path id="o" d="M64.8 13.1144C64.8 13.9759 64.5557 14.6817 64.0671 15.2354C63.5549 15.8046 62.8764 16.0886 62.029 16.0886C61.2124 16.0886 60.5621 15.8165 60.0771 15.2699C59.5932 14.7245 59.3513 14.0365 59.3513 13.207C59.3513 12.3396 59.6003 11.6278 60.1007 11.0753C60.6011 10.5227 61.2738 10.2458 62.1211 10.2458C62.9377 10.2458 63.5939 10.518 64.0907 11.0634C64.5628 11.5934 64.8 12.2778 64.8 13.1144ZM63.5172 13.1548C63.5172 12.6379 63.4063 12.1946 63.1856 11.8251C62.9259 11.3783 62.5566 11.1549 62.0762 11.1549C61.5794 11.1549 61.2018 11.3783 60.9421 11.8251C60.7203 12.1946 60.6105 12.645 60.6105 13.1773C60.6105 13.6942 60.7215 14.1375 60.9421 14.507C61.21 14.9538 61.5829 15.1772 62.0644 15.1772C62.5365 15.1772 62.9071 14.9503 63.1738 14.4951C63.4027 14.1185 63.5172 13.6717 63.5172 13.1548Z" fill="white"/>
<path id="w" d="M74.0701 10.3601L72.3294 15.9617H71.1964L70.4754 13.5293C70.2925 12.922 70.1438 12.3184 70.0281 11.7195H70.0057C69.8983 12.335 69.7496 12.9375 69.5584 13.5293L68.7925 15.9617H67.6466L66.0098 10.3601H67.2808L67.9098 13.023C68.062 13.6528 68.1871 14.2529 68.2874 14.8209H68.3098C68.4019 14.3527 68.5541 13.7562 68.7689 13.0349L69.5584 10.3613H70.5662L71.3227 12.9779C71.5056 13.616 71.6543 14.2303 71.7688 14.8221H71.803C71.8868 14.2458 72.0131 13.6314 72.1807 12.9779L72.8557 10.3613H74.0701V10.3601Z" fill="white"/>
<path id="n" d="M80.4818 15.9614H79.245V12.753C79.245 11.7644 78.8721 11.2701 78.1239 11.2701C77.7568 11.2701 77.4606 11.4055 77.2305 11.6776C77.0027 11.9497 76.8871 12.2706 76.8871 12.6378V15.9602H75.6503V11.9604C75.6503 11.4685 75.635 10.935 75.6055 10.3575H76.6924L76.7502 11.2332H76.7844C76.9284 10.9611 77.1432 10.7365 77.4252 10.5571C77.7604 10.3479 78.1357 10.2422 78.5463 10.2422C79.0656 10.2422 79.4975 10.4109 79.8409 10.7496C80.2682 11.1643 80.4818 11.7834 80.4818 12.6057V15.9614Z" fill="white"/>
<path id="l" d="M83.8935 15.9618H82.658V7.79004H83.8935V15.9618Z" fill="white"/>
<path id="o_2" d="M91.1733 13.1146C91.1733 13.9761 90.929 14.6819 90.4404 15.2357C89.9282 15.8049 89.2485 16.0889 88.4023 16.0889C87.5845 16.0889 86.9342 15.8168 86.4504 15.2701C85.9665 14.7247 85.7246 14.0367 85.7246 13.2073C85.7246 12.3398 85.9736 11.6281 86.474 11.0755C86.9744 10.523 87.647 10.2461 88.4932 10.2461C89.311 10.2461 89.966 10.5182 90.464 11.0636C90.9361 11.5936 91.1733 12.2781 91.1733 13.1146ZM89.8893 13.155C89.8893 12.6381 89.7784 12.1949 89.5577 11.8253C89.2992 11.3785 88.9287 11.1551 88.4495 11.1551C87.9515 11.1551 87.5739 11.3785 87.3154 11.8253C87.0936 12.1949 86.9838 12.6452 86.9838 13.1776C86.9838 13.6945 87.0947 14.1377 87.3154 14.5073C87.5833 14.9541 87.9562 15.1775 88.4377 15.1775C88.9098 15.1775 89.2792 14.9505 89.5459 14.4954C89.776 14.1187 89.8893 13.6719 89.8893 13.155Z" fill="white"/>
<path id="a" d="M97.1609 15.9617H96.0503L95.9583 15.3165H95.9241C95.5441 15.831 95.0024 16.0889 94.299 16.0889C93.7739 16.0889 93.349 15.9189 93.0292 15.5815C92.7389 15.2749 92.5938 14.8935 92.5938 14.4407C92.5938 13.7563 92.877 13.2346 93.447 12.8734C94.0158 12.5121 94.8159 12.3351 95.8462 12.3434V12.2388C95.8462 11.5009 95.4615 11.1326 94.6908 11.1326C94.1421 11.1326 93.6582 11.2716 93.2405 11.5473L92.9891 10.7297C93.506 10.4077 94.1444 10.2461 94.8974 10.2461C96.3513 10.2461 97.0806 11.0185 97.0806 12.5632V14.6261C97.0806 15.1858 97.1077 15.6314 97.1609 15.9617ZM95.8769 14.0367V13.1728C94.5126 13.1491 93.8305 13.5258 93.8305 14.3017C93.8305 14.594 93.9084 14.8127 94.0677 14.9588C94.227 15.105 94.43 15.1775 94.672 15.1775C94.9434 15.1775 95.1971 15.0907 95.4284 14.9184C95.6609 14.7449 95.8037 14.5251 95.8568 14.2554C95.8698 14.1948 95.8769 14.1211 95.8769 14.0367Z" fill="white"/>
<path id="d" d="M104.188 15.9618H103.09L103.032 15.0623H102.998C102.647 15.7468 102.05 16.089 101.211 16.089C100.541 16.089 99.9827 15.824 99.5402 15.294C99.0976 14.7641 98.877 14.076 98.877 13.2312C98.877 12.3245 99.1165 11.5902 99.598 11.0293C100.064 10.5064 100.635 10.245 101.315 10.245C102.062 10.245 102.585 10.4981 102.882 11.0055H102.906V7.79004H104.144V14.4527C104.144 14.9982 104.158 15.5008 104.188 15.9618ZM102.906 13.5995V12.6656C102.906 12.504 102.894 12.3732 102.872 12.2734C102.802 11.974 102.652 11.7221 102.424 11.5189C102.194 11.3157 101.917 11.2135 101.597 11.2135C101.136 11.2135 100.775 11.3977 100.509 11.7672C100.246 12.1368 100.113 12.6085 100.113 13.1848C100.113 13.7386 100.239 14.1877 100.493 14.5335C100.76 14.9019 101.122 15.0861 101.574 15.0861C101.98 15.0861 102.304 14.9328 102.551 14.625C102.789 14.341 102.906 13.9988 102.906 13.5995Z" fill="white"/>
<path id="o_3" d="M114.765 13.1146C114.765 13.9761 114.521 14.6819 114.032 15.2357C113.52 15.8049 112.843 16.0889 111.994 16.0889C111.179 16.0889 110.528 15.8168 110.042 15.2701C109.558 14.7247 109.316 14.0367 109.316 13.2073C109.316 12.3398 109.565 11.6281 110.066 11.0755C110.566 10.523 111.239 10.2461 112.087 10.2461C112.903 10.2461 113.56 10.5182 114.056 11.0636C114.528 11.5936 114.765 12.2781 114.765 13.1146ZM113.483 13.155C113.483 12.6381 113.373 12.1949 113.152 11.8253C112.891 11.3785 112.523 11.1551 112.041 11.1551C111.546 11.1551 111.168 11.3785 110.907 11.8253C110.685 12.1949 110.576 12.6452 110.576 13.1776C110.576 13.6945 110.687 14.1377 110.907 14.5073C111.175 14.9541 111.548 15.1775 112.03 15.1775C112.502 15.1775 112.873 14.9505 113.14 14.4954C113.368 14.1187 113.483 13.6719 113.483 13.155Z" fill="white"/>
<path id="n_2" d="M121.414 15.9616H120.179V12.7533C120.179 11.7646 119.806 11.2703 119.056 11.2703C118.689 11.2703 118.393 11.4058 118.164 11.6779C117.935 11.95 117.821 12.2708 117.821 12.638V15.9604H116.583V11.9607C116.583 11.4687 116.569 10.9352 116.539 10.3577H117.625L117.683 11.2335H117.717C117.862 10.9613 118.077 10.7368 118.358 10.5573C118.694 10.3482 119.068 10.2424 119.48 10.2424C119.998 10.2424 120.43 10.4112 120.773 10.7498C121.202 11.1645 121.414 11.7836 121.414 12.6059V15.9616Z" fill="white"/>
<path id="t" d="M129.738 11.2927H128.376V14.0139C128.376 14.7054 128.618 15.0512 129.097 15.0512C129.319 15.0512 129.503 15.0322 129.648 14.993L129.68 15.9377C129.436 16.0304 129.115 16.0767 128.719 16.0767C128.231 16.0767 127.851 15.927 127.576 15.6275C127.3 15.3281 127.163 14.8243 127.163 14.1172V11.2927H126.35V10.3599H127.163V9.33321L128.375 8.96484V10.3587H129.737V11.2927H129.738Z" fill="white"/>
<path id="h" d="M136.287 15.9618H135.049V12.7773C135.049 11.7732 134.676 11.2705 133.929 11.2705C133.355 11.2705 132.963 11.5616 132.749 12.1439C132.712 12.2663 132.691 12.416 132.691 12.5919V15.9607H131.455V7.79004H132.691V11.1659H132.714C133.104 10.5516 133.662 10.245 134.385 10.245C134.898 10.245 135.321 10.4138 135.658 10.7524C136.076 11.1743 136.287 11.8017 136.287 12.6311V15.9618Z" fill="white"/>
<path id="e" d="M143.04 12.8962C143.04 13.1196 143.023 13.3073 142.994 13.4606H139.285C139.301 14.0143 139.478 14.4362 139.821 14.7285C140.135 14.9899 140.54 15.1206 141.036 15.1206C141.585 15.1206 142.085 15.0327 142.536 14.8556L142.729 15.7207C142.202 15.9512 141.581 16.0665 140.862 16.0665C140.001 16.0665 139.322 15.811 138.831 15.3C138.338 14.7891 138.094 14.1035 138.094 13.2431C138.094 12.3983 138.322 11.6948 138.781 11.1339C139.26 10.535 139.908 10.2356 140.725 10.2356C141.526 10.2356 142.133 10.535 142.544 11.1339C142.876 11.6092 143.04 12.1974 143.04 12.8962ZM141.86 12.5741C141.869 12.2046 141.788 11.8861 141.62 11.6176C141.405 11.2718 141.078 11.0983 140.636 11.0983C140.232 11.0983 139.903 11.267 139.652 11.6057C139.446 11.8754 139.325 12.1974 139.285 12.5741H141.86Z" fill="white"/>
</g>
<g id="App Store_2">
<path id="A" d="M63.3095 37.4367H60.6295L59.1614 32.7917H54.0585L52.66 37.4367H50.0508L55.1065 21.623H58.2291L63.3095 37.4367ZM58.7188 30.8429L57.3912 26.7136C57.2508 26.2918 56.9876 25.2984 56.5993 23.7346H56.5521C56.3975 24.4072 56.1485 25.4006 55.8063 26.7136L54.5022 30.8429H58.7188Z" fill="white"/>
<path id="p" d="M76.3118 31.5951C76.3118 33.5343 75.7914 35.0672 74.7505 36.1925C73.8182 37.1942 72.6605 37.6945 71.2786 37.6945C69.7869 37.6945 68.7153 37.155 68.0627 36.0761H68.0155V42.0828H65.4995V29.7877C65.4995 28.5685 65.4676 27.3172 65.4062 26.0339H67.619L67.7594 27.8413H67.8066C68.6457 26.4795 69.9191 25.7998 71.6279 25.7998C72.9638 25.7998 74.079 26.331 74.9712 27.3945C75.8657 28.4592 76.3118 29.859 76.3118 31.5951ZM73.7486 31.6877C73.7486 30.5779 73.5008 29.6629 73.0028 28.9428C72.4587 28.1918 71.7282 27.8163 70.8124 27.8163C70.1917 27.8163 69.6276 28.0255 69.1237 28.4378C68.6186 28.8537 68.2881 29.3967 68.1335 30.0693C68.0556 30.383 68.0167 30.6397 68.0167 30.8417V32.7429C68.0167 33.5724 68.2692 34.2723 68.7743 34.8438C69.2794 35.4154 69.9356 35.7006 70.7428 35.7006C71.6904 35.7006 72.428 35.3322 72.9555 34.5978C73.4842 33.8623 73.7486 32.8927 73.7486 31.6877Z" fill="white"/>
<path id="p_2" d="M89.336 31.5951C89.336 33.5343 88.8156 35.0672 87.7736 36.1925C86.8424 37.1942 85.6847 37.6945 84.3028 37.6945C82.8111 37.6945 81.7395 37.155 81.0881 36.0761H81.0409V42.0828H78.5249V29.7877C78.5249 28.5685 78.493 27.3172 78.4316 26.0339H80.6444L80.7848 27.8413H80.832C81.6699 26.4795 82.9433 25.7998 84.6533 25.7998C85.988 25.7998 87.1032 26.331 87.9978 27.3945C88.8888 28.4592 89.336 29.859 89.336 31.5951ZM86.7728 31.6877C86.7728 30.5779 86.5238 29.6629 86.0258 28.9428C85.4817 28.1918 84.7536 27.8163 83.8366 27.8163C83.2147 27.8163 82.6518 28.0255 82.1467 28.4378C81.6416 28.8537 81.3123 29.3967 81.1577 30.0693C81.081 30.383 81.0409 30.6397 81.0409 30.8417V32.7429C81.0409 33.5724 81.2935 34.2723 81.7962 34.8438C82.3013 35.4142 82.9574 35.7006 83.767 35.7006C84.7147 35.7006 85.4522 35.3322 85.9798 34.5978C86.5085 33.8623 86.7728 32.8927 86.7728 31.6877Z" fill="white"/>
<path id="S" d="M103.899 33.0013C103.899 34.3465 103.436 35.4409 102.505 36.2857C101.481 37.209 100.057 37.6701 98.2265 37.6701C96.5366 37.6701 95.1818 37.3421 94.1562 36.685L94.7392 34.5734C95.8438 35.246 97.0558 35.5835 98.3764 35.5835C99.324 35.5835 100.062 35.3672 100.592 34.937C101.119 34.5069 101.382 33.9294 101.382 33.2093C101.382 32.5676 101.165 32.0269 100.73 31.5885C100.296 31.15 99.5731 30.7424 98.5629 30.3657C95.8132 29.3331 94.4395 27.8204 94.4395 25.8312C94.4395 24.5313 94.921 23.4654 95.8851 22.6359C96.8458 21.8053 98.1274 21.3906 99.73 21.3906C101.159 21.3906 102.346 21.6414 103.294 22.1416L102.665 24.2069C101.78 23.722 100.779 23.4796 99.6592 23.4796C98.7741 23.4796 98.0826 23.6995 97.5869 24.1367C97.168 24.5277 96.9579 25.0042 96.9579 25.5686C96.9579 26.1937 97.1974 26.7106 97.6789 27.117C98.0979 27.4924 98.8591 27.8988 99.9637 28.3373C101.315 28.8851 102.307 29.5256 102.946 30.26C103.582 30.9919 103.899 31.9081 103.899 33.0013Z" fill="white"/>
<path id="t_2" d="M112.219 27.9348H109.446V33.471C109.446 34.8791 109.934 35.5826 110.914 35.5826C111.363 35.5826 111.736 35.5434 112.031 35.465L112.101 37.3888C111.605 37.5753 110.953 37.6692 110.144 37.6692C109.151 37.6692 108.374 37.3638 107.814 36.7542C107.255 36.1435 106.974 35.1192 106.974 33.6802V27.9324H105.322V26.0312H106.974V23.9434L109.446 23.1924V26.0312H112.219V27.9348Z" fill="white"/>
<path id="o_4" d="M124.731 31.6402C124.731 33.3929 124.233 34.8319 123.239 35.9572C122.197 37.1158 120.814 37.6933 119.09 37.6933C117.428 37.6933 116.105 37.1384 115.119 36.0285C114.132 34.9187 113.639 33.5177 113.639 31.8291C113.639 30.0622 114.146 28.6148 115.165 27.4895C116.181 26.3631 117.552 25.7998 119.276 25.7998C120.938 25.7998 122.275 26.3547 123.284 27.4658C124.249 28.5435 124.731 29.935 124.731 31.6402ZM122.12 31.7222C122.12 30.6706 121.897 29.7687 121.445 29.0165C120.918 28.1063 120.164 27.6523 119.186 27.6523C118.175 27.6523 117.407 28.1074 116.879 29.0165C116.427 29.7699 116.204 30.686 116.204 31.7697C116.204 32.8214 116.427 33.7233 116.879 34.4743C117.423 35.3845 118.183 35.8384 119.164 35.8384C120.125 35.8384 120.879 35.375 121.423 34.4505C121.887 33.6841 122.12 32.7726 122.12 31.7222Z" fill="white"/>
<path id="r" d="M132.91 28.2619C132.661 28.2156 132.396 28.1918 132.117 28.1918C131.232 28.1918 130.548 28.5281 130.066 29.2019C129.647 29.796 129.437 30.547 129.437 31.4536V37.4366H126.922L126.946 29.6249C126.946 28.3106 126.914 27.114 126.852 26.0351H129.043L129.135 28.2168H129.205C129.47 27.467 129.889 26.8633 130.463 26.4106C131.023 26.003 131.629 25.7998 132.281 25.7998C132.514 25.7998 132.724 25.8164 132.91 25.8461V28.2619Z" fill="white"/>
<path id="e_2" d="M144.162 31.1957C144.162 31.6496 144.132 32.0322 144.07 32.3448H136.522C136.551 33.4713 136.916 34.3328 137.617 34.9269C138.253 35.4581 139.075 35.7242 140.086 35.7242C141.203 35.7242 142.223 35.5448 143.14 35.1848L143.534 36.9434C142.462 37.414 141.197 37.6481 139.737 37.6481C137.981 37.6481 136.603 37.1276 135.6 36.0878C134.599 35.0481 134.098 33.6519 134.098 31.9003C134.098 30.1809 134.564 28.749 135.497 27.6071C136.474 26.3879 137.795 25.7783 139.457 25.7783C141.089 25.7783 142.324 26.3879 143.163 27.6071C143.828 28.5755 144.162 29.7733 144.162 31.1957ZM141.763 30.5386C141.779 29.7876 141.615 29.1388 141.274 28.591C140.839 27.8863 140.169 27.5346 139.269 27.5346C138.446 27.5346 137.777 27.878 137.266 28.5672C136.847 29.115 136.598 29.7721 136.522 30.5374H141.763V30.5386Z" fill="white"/>
</g>
</g>
</g>
</svg>
