<svg width="69" height="53" viewBox="0 0 69 53" fill="none" xmlns="http://www.w3.org/2000/svg">
<path d="M10.5877 5.31557H1.28516V39.4895H6.06062V26.3223H10.5877C16.3877 26.3223 21.0926 21.6204 21.0926 15.8174C21.0926 10.0144 16.3907 5.3125 10.5877 5.3125V5.31557ZM10.5877 21.5468H6.06062V10.0911H10.5877C13.7499 10.0911 16.3141 12.6552 16.3141 15.8174C16.3141 18.9796 13.7499 21.5438 10.5877 21.5438V21.5468Z" fill="#FFCB05"/>
<path d="M60.2321 39.4895H66.1639L57.5668 25.8561C61.8546 24.5342 64.9677 20.5408 64.9677 15.8174C64.9677 10.0175 60.2658 5.3125 54.4628 5.3125H45.1602V39.4865H49.9357V26.3193H51.9263L60.229 39.4865L60.2321 39.4895ZM49.9388 10.0911H54.4659C57.6281 10.0911 60.1922 12.6552 60.1922 15.8174C60.1922 18.9796 57.6281 21.5438 54.4659 21.5438H49.9388V10.088V10.0911Z" fill="#FFCB05"/>
<path d="M37.3553 4.26946L31.7946 25.2241L26.2339 4.26946L20.0781 0L31.7946 44.0286L43.511 0L37.3553 4.26946Z" fill="#FFCB05"/>
<path d="M3.72 51.1172H2.095L1.785 51.8672H0.955L2.515 48.3672H3.315L4.88 51.8672H4.03L3.72 51.1172ZM3.465 50.5022L2.91 49.1622L2.355 50.5022H3.465ZM8.17414 48.3672C8.48414 48.3672 8.75247 48.4189 8.97914 48.5222C9.20914 48.6255 9.38581 48.7722 9.50914 48.9622C9.63247 49.1522 9.69414 49.3772 9.69414 49.6372C9.69414 49.8939 9.63247 50.1189 9.50914 50.3122C9.38581 50.5022 9.20914 50.6489 8.97914 50.7522C8.75247 50.8522 8.48414 50.9022 8.17414 50.9022H7.46914V51.8672H6.65914V48.3672H8.17414ZM8.12914 50.2422C8.37247 50.2422 8.55747 50.1905 8.68414 50.0872C8.81081 49.9805 8.87414 49.8305 8.87414 49.6372C8.87414 49.4405 8.81081 49.2905 8.68414 49.1872C8.55747 49.0805 8.37247 49.0272 8.12914 49.0272H7.46914V50.2422H8.12914ZM13.5984 48.3672L12.0834 51.8672H11.2834L9.77336 48.3672H10.6484L11.7134 50.8672L12.7934 48.3672H13.5984ZM16.1206 51.8672L15.4456 50.8922H15.4056H14.7006V51.8672H13.8906V48.3672H15.4056C15.7156 48.3672 15.9839 48.4189 16.2106 48.5222C16.4406 48.6255 16.6173 48.7722 16.7406 48.9622C16.8639 49.1522 16.9256 49.3772 16.9256 49.6372C16.9256 49.8972 16.8623 50.1222 16.7356 50.3122C16.6123 50.4989 16.4356 50.6422 16.2056 50.7422L16.9906 51.8672H16.1206ZM16.1056 49.6372C16.1056 49.4405 16.0423 49.2905 15.9156 49.1872C15.7889 49.0805 15.6039 49.0272 15.3606 49.0272H14.7006V50.2472H15.3606C15.6039 50.2472 15.7889 50.1939 15.9156 50.0872C16.0423 49.9805 16.1056 49.8305 16.1056 49.6372ZM18.9834 48.3672H19.7934V51.8672H18.9834V48.3672ZM23.834 48.3672V51.8672H23.169L21.424 49.7422V51.8672H20.624V48.3672H21.294L23.034 50.4922V48.3672H23.834ZM26.3571 51.9272C25.9937 51.9272 25.6654 51.8489 25.3721 51.6922C25.0821 51.5355 24.8537 51.3205 24.6871 51.0472C24.5237 50.7705 24.4421 50.4605 24.4421 50.1172C24.4421 49.7739 24.5237 49.4655 24.6871 49.1922C24.8537 48.9155 25.0821 48.6989 25.3721 48.5422C25.6654 48.3855 25.9937 48.3072 26.3571 48.3072C26.7204 48.3072 27.0471 48.3855 27.3371 48.5422C27.6271 48.6989 27.8554 48.9155 28.0221 49.1922C28.1887 49.4655 28.2721 49.7739 28.2721 50.1172C28.2721 50.4605 28.1887 50.7705 28.0221 51.0472C27.8554 51.3205 27.6271 51.5355 27.3371 51.6922C27.0471 51.8489 26.7204 51.9272 26.3571 51.9272ZM26.3571 51.2372C26.5637 51.2372 26.7504 51.1905 26.9171 51.0972C27.0837 51.0005 27.2137 50.8672 27.3071 50.6972C27.4037 50.5272 27.4521 50.3339 27.4521 50.1172C27.4521 49.9005 27.4037 49.7072 27.3071 49.5372C27.2137 49.3672 27.0837 49.2355 26.9171 49.1422C26.7504 49.0455 26.5637 48.9972 26.3571 48.9972C26.1504 48.9972 25.9637 49.0455 25.7971 49.1422C25.6304 49.2355 25.4987 49.3672 25.4021 49.5372C25.3087 49.7072 25.2621 49.9005 25.2621 50.1172C25.2621 50.3339 25.3087 50.5272 25.4021 50.6972C25.4987 50.8672 25.6304 51.0005 25.7971 51.0972C25.9637 51.1905 26.1504 51.2372 26.3571 51.2372ZM30.9589 51.8672L30.1139 50.6522L29.2839 51.8672H28.3539L29.6489 50.0872L28.4189 48.3672H29.3389L30.1439 49.5022L30.9339 48.3672H31.8089L30.5889 50.0572L31.8939 51.8672H30.9589ZM36.4492 51.2172V51.8672H33.7392V48.3672H36.3842V49.0172H34.5442V49.7772H36.1692V50.4072H34.5442V51.2172H36.4492ZM39.2645 51.8672L38.4195 50.6522L37.5895 51.8672H36.6595L37.9545 50.0872L36.7245 48.3672H37.6445L38.4495 49.5022L39.2395 48.3672H40.1145L38.8945 50.0572L40.1995 51.8672H39.2645ZM42.0316 48.3672C42.3416 48.3672 42.6099 48.4189 42.8366 48.5222C43.0666 48.6255 43.2432 48.7722 43.3666 48.9622C43.4899 49.1522 43.5516 49.3772 43.5516 49.6372C43.5516 49.8939 43.4899 50.1189 43.3666 50.3122C43.2432 50.5022 43.0666 50.6489 42.8366 50.7522C42.6099 50.8522 42.3416 50.9022 42.0316 50.9022H41.3266V51.8672H40.5166V48.3672H42.0316ZM41.9866 50.2422C42.2299 50.2422 42.4149 50.1905 42.5416 50.0872C42.6682 49.9805 42.7316 49.8305 42.7316 49.6372C42.7316 49.4405 42.6682 49.2905 42.5416 49.1872C42.4149 49.0805 42.2299 49.0272 41.9866 49.0272H41.3266V50.2422H41.9866ZM46.8398 51.2172V51.8672H44.1298V48.3672H46.7748V49.0172H44.9348V49.7772H46.5598V50.4072H44.9348V51.2172H46.8398ZM49.7143 51.8672L49.0393 50.8922H48.9993H48.2943V51.8672H47.4843V48.3672H48.9993C49.3093 48.3672 49.5777 48.4189 49.8043 48.5222C50.0343 48.6255 50.211 48.7722 50.3343 48.9622C50.4577 49.1522 50.5193 49.3772 50.5193 49.6372C50.5193 49.8972 50.456 50.1222 50.3293 50.3122C50.206 50.4989 50.0293 50.6422 49.7993 50.7422L50.5843 51.8672H49.7143ZM49.6993 49.6372C49.6993 49.4405 49.636 49.2905 49.5093 49.1872C49.3827 49.0805 49.1977 49.0272 48.9543 49.0272H48.2943V50.2472H48.9543C49.1977 50.2472 49.3827 50.1939 49.5093 50.0872C49.636 49.9805 49.6993 49.8305 49.6993 49.6372ZM51.1611 48.3672H51.9711V51.8672H51.1611V48.3672ZM55.5117 51.2172V51.8672H52.8017V48.3672H55.4467V49.0172H53.6067V49.7772H55.2317V50.4072H53.6067V51.2172H55.5117ZM59.3662 48.3672V51.8672H58.7012L56.9562 49.7422V51.8672H56.1562V48.3672H56.8262L58.5662 50.4922V48.3672H59.3662ZM61.8693 51.9272C61.5126 51.9272 61.1893 51.8505 60.8993 51.6972C60.6126 51.5405 60.386 51.3255 60.2193 51.0522C60.056 50.7755 59.9743 50.4639 59.9743 50.1172C59.9743 49.7705 60.056 49.4605 60.2193 49.1872C60.386 48.9105 60.6126 48.6955 60.8993 48.5422C61.1893 48.3855 61.5143 48.3072 61.8743 48.3072C62.1776 48.3072 62.451 48.3605 62.6943 48.4672C62.941 48.5739 63.1476 48.7272 63.3143 48.9272L62.7943 49.4072C62.5576 49.1339 62.2643 48.9972 61.9143 48.9972C61.6976 48.9972 61.5043 49.0455 61.3343 49.1422C61.1643 49.2355 61.031 49.3672 60.9343 49.5372C60.841 49.7072 60.7943 49.9005 60.7943 50.1172C60.7943 50.3339 60.841 50.5272 60.9343 50.6972C61.031 50.8672 61.1643 51.0005 61.3343 51.0972C61.5043 51.1905 61.6976 51.2372 61.9143 51.2372C62.2643 51.2372 62.5576 51.0989 62.7943 50.8222L63.3143 51.3022C63.1476 51.5055 62.941 51.6605 62.6943 51.7672C62.4476 51.8739 62.1726 51.9272 61.8693 51.9272ZM66.5713 51.2172V51.8672H63.8613V48.3672H66.5063V49.0172H64.6663V49.7772H66.2913V50.4072H64.6663V51.2172H66.5713Z" fill="#231F20"/>
</svg>
